<svg preserveAspectRatio="none" overflow="visible" style="display: block;" width="8.1" height="8.1" viewBox="0 0 8.1 8.1" fill="none" xmlns="http://www.w3.org/2000/svg">
<g id="Icon / bell">
<path id="Vector" d="M2.025 2.7C2.025 2.16294 2.23835 1.64787 2.61811 1.26811C2.99787 0.888348 3.51294 0.675 4.05 0.675C4.58706 0.675 5.10213 0.888348 5.48189 1.26811C5.86165 1.64787 6.075 2.16294 6.075 2.7C6.075 5.0625 7.0875 5.7375 7.0875 5.7375H1.0125C1.0125 5.7375 2.025 5.0625 2.025 2.7Z" stroke="#565E6B" stroke-width="0.7875" stroke-linecap="round" stroke-linejoin="round"/>
<path id="Vector_2" d="M3.47625 7.0875C3.53274 7.19025 3.61579 7.27594 3.71672 7.33563C3.81764 7.39531 3.93275 7.4268 4.05 7.4268C4.16725 7.4268 4.28236 7.39531 4.38328 7.33563C4.48421 7.27594 4.56726 7.19025 4.62375 7.0875" stroke="#565E6B" stroke-width="0.7875" stroke-linecap="round" stroke-linejoin="round"/>
</g>
</svg>
